HIERARCHY
ROOT Hips
{
	OFFSET 0.00000 0.00000 0.00000
	CHANNELS 6 Xposition Yposition Zposition Yrotation Zrotation Xrotation 
	JOINT Lumbar
	{
		OFFSET 0 0 0
		CHANNELS 3 Zrotation Xrotation Yrotation
		JOINT Neck
		{
			OFFSET 0.00 0.2701 0.00
			CHANNELS 3 Zrotation Xrotation Yrotation
			End Site
			{
				OFFSET 0.00 0.1379 0.00
			}
		}
		JOINT RightShoulder
		{
			OFFSET 0.0119 0.2289 0.1181
			CHANNELS 3 Zrotation Xrotation Yrotation
			JOINT RightElbow
			{
				OFFSET 0.00 -0.1475 0.00
				CHANNELS 2 Zrotation Yrotation
				JOINT RightWrist
				{
					OFFSET 0.00 -0.1605 0.00
					CHANNELS 2 Zrotation Xrotation
					End Site
					{
						OFFSET 0.0040 -0.1068 0.0006
					}
				}
			}
		}
		JOINT LeftShoulder
		{
			OFFSET 0.0119 0.2289 -0.1181
			CHANNELS 3 Zrotation Xrotation Yrotation
			JOINT LeftElbow
			{
				OFFSET 0.00 -0.1475 0.00
				CHANNELS 2 Zrotation Yrotation
				JOINT LeftWrist
				{
					OFFSET 0.00 -0.1605 0.00
					CHANNELS 2 Zrotation Xrotation
					End Site
					{
						OFFSET 0.0040 -0.1068 -0.0006
					}
				}
			}
		}
	}
	JOINT RightHip
	{
		OFFSET 0.0316 -0.0424 0.0458
		CHANNELS 3 Zrotation Xrotation Yrotation
		JOINT RightKnee
		{
			OFFSET 0.00 -0.2438 0.00
			CHANNELS 1 Zrotation
			JOINT RightAnkle
			{
				OFFSET 0.00 -0.2449 0.00
				CHANNELS 3 Zrotation Xrotation Yrotation
				End Site
				{
					OFFSET 0.1237 -0.0542 0.0051
				}
			}
		}
	}
	JOINT LeftHip
	{
		OFFSET 0.0316 -0.0424 -0.0458
		CHANNELS 3 Zrotation Xrotation Yrotation
		JOINT LeftKnee
		{
			OFFSET 0.00 -0.2438 0.00
			CHANNELS 1 Zrotation
			JOINT LeftAnkle
			{
				OFFSET 0.00 -0.2449 0.00
				CHANNELS 3 Zrotation Xrotation Yrotation
				End Site
				{
					OFFSET 0.1237 -0.0542 -0.0051
				}
			}
		}
	}
}
MOTION
Frames: 20
Frame Time: 0.02
0 0.57926 0 188.04194 0 -3.44613 5.34997 4.67479 -5.11153 -13.48753 2.51929 -4.64888 15.50804 -15.70388 24.72041 63.73478 116.95609 -30.80202 -8.46612 9.25278 10.83223 -13.52169 72.25408 -64.57081 10.04734 9.17992 -6.20195 7.1765 -4.23321 -2.78279 0.60249 -4.10061 -6.41728 -3.15286 1.51518 -8.06716 -5.72594 4.46034 5.3586 8.0222
0.0001 0.57907 -0.00029 187.87106 0 -3.46325 5.46967 4.58999 -4.91267 -14.28117 2.45235 -4.40709 18.14732 -14.6398 24.34792 54.48028 111.34614 -25.61113 -8.50791 12.64167 9.95874 -13.7942 61.83663 -62.68408 10.81934 9.3543 -6.14119 7.19785 -4.05653 -2.85567 0.68388 -4.11447 -6.41675 -3.17193 1.55109 -7.95593 -5.70772 4.5418 5.38406 8.05215
0.0002 0.57887 -0.00057 187.70233 0 -3.48005 5.58849 4.50531 -4.71382 -15.07102 2.38582 -4.16557 20.75584 -13.58632 23.92014 45.28627 105.76372 -20.46001 -8.5395 15.99858 9.09384 -14.05134 51.48616 -60.82844 11.56506 9.51835 -6.0816 7.2191 -3.88221 -2.9275 0.76508 -4.12833 -6.41607 -3.19139 1.58677 -7.84593 -5.68917 4.62285 5.40926 8.08144
0.00028 0.57868 -0.00085 187.54016 0 -3.49581 5.70542 4.42114 -4.51047 -15.85341 2.31816 -3.92165 23.27577 -12.56124 23.23311 36.24172 100.22776 -15.41984 -8.52329 19.27307 8.25331 -14.28919 41.29873 -59.0962 12.19727 9.6349 -6.02604 7.24009 -3.71572 -2.99539 0.84565 -4.1423 -6.41451 -3.21251 1.62187 -7.73877 -5.66865 4.70263 5.43346 8.10765
0.00044 0.57847 -0.00115 187.34278 0 -3.51715 5.83292 4.33528 -4.32788 -16.67525 2.25392 -3.68909 26.27548 -11.38141 23.87792 26.40283 94.43497 -9.79498 -8.7514 22.9991 7.28191 -14.67676 30.24373 -56.73119 13.41167 9.99362 -5.94906 7.26237 -3.50789 -3.08362 0.92877 -4.15566 -6.41727 -3.22478 1.65997 -7.61523 -5.65803 4.78867 5.46271 8.14914
0.00042 0.57829 -0.00141 187.22034 0 -3.52661 5.93756 4.25241 -4.10364 -17.41288 2.18424 -3.43365 28.25033 -10.53297 21.73347 18.25563 89.19846 -5.4103 -8.46858 25.75625 6.58947 -14.71503 21.03738 -55.6927 13.40648 9.84623 -5.9175 7.28197 -3.38762 -3.12913 1.00693 -4.17034 -6.41115 -3.25578 1.69173 -7.52738 -5.62685 4.86171 5.48142 8.15898
-8e-05 0.57815 -0.00158 187.30689 0 -3.50288 5.98267 4.18155 -3.73575 -17.92984 2.08222 -3.09775 27.40562 -10.58437 11.29934 14.71002 85.34601 -4.47257 -6.66247 25.90211 6.66657 -14.02728 16.84533 -58.54604 9.79649 8.18927 -6.01464 7.29377 -3.51535 -3.05013 1.06869 -4.18878 -6.37709 -3.34121 1.70587 -7.53388 -5.53259 4.89621 5.46904 8.07469
-0.00077 0.57803 -0.00171 187.46877 0 -3.4672 6.00403 4.113 -3.33035 -18.36033 1.97748 -2.74147 25.52383 -10.97249 -1.85542 12.88138 82.07827 -4.78192 -4.35865 25.05892 7.02548 -12.9438 14.53177 -62.7011 4.99353 6.03924 -6.15711 7.30299 -3.73045 -2.92908 1.1259 -4.20853 -6.33462 -3.44517 1.71359 -7.57863 -5.4186 4.91784 5.4464 7.9611
-0.00138 0.5779 -0.00185 187.59504 0 -3.4372 6.03403 4.04074 -2.96062 -18.82308 1.88553 -2.4054 24.1078 -11.21751 -13.39572 10.30832 78.63794 -4.50504 -2.35399 24.62545 7.25617 -11.88311 11.41261 -66.11389 0.88733 4.18652 -6.27685 7.31366 -3.90174 -2.83149 1.18721 -4.22764 -6.29819 -3.53903 1.72437 -7.60678 -5.31766 4.94743 5.42965 7.86329
-0.00199 0.57777 -0.00198 187.72729 0 -3.40612 6.07331 3.9794 -2.51356 -19.31478 1.74607 -2.02346 22.71329 -11.42357 -26.52612 7.58391 74.80752 -4.30997 -0.04378 24.35654 7.48767 -11.47888 8.09072 -70.15682 -3.86594 2.02838 -6.40562 7.32306 -4.09042 -2.71571 1.24041 -4.24697 -6.25252 -3.63993 1.73475 -7.62567 -5.19963 4.96914 5.40754 7.74893
-0.00265 0.57764 -0.00214 187.86473 0 -3.37448 6.08737 3.89626 -2.21711 -19.7265 1.70335 -1.73186 21.03003 -11.78712 -36.99628 5.58343 71.9255 -4.24163 1.75104 23.51389 7.78424 -9.62148 5.63801 -73.20353 -7.56124 0.38489 -6.52627 7.33459 -4.26355 -2.62761 1.30881 -4.2661 -6.22396 -3.73061 1.74419 -7.68042 -5.11232 5.00292 5.39441 7.66981
-0.00345 0.57747 -0.00237 187.99976 0 -3.34417 6.03999 3.74906 -2.35884 -19.93162 1.94188 -1.69766 18.78492 -12.53373 -39.4197 5.15173 71.54108 -4.21023 1.97754 21.2974 8.19266 -3.77441 5.11663 -73.12557 -7.98949 0.32154 -6.61395 7.35207 -4.37276 -2.62826 1.42548 -4.28504 -6.24578 -3.78812 1.75502 -7.75561 -5.11642 5.0847 5.4063 7.62418
-0.0043 0.5773 -0.00263 188.13687 0 -3.31377 5.96766 3.58056 -2.65101 -20.06067 2.27525 -1.75457 16.29006 -13.4211 -39.0843 5.39141 72.08588 -4.26561 1.6726 18.54482 8.65634 3.50977 5.40711 -72.01374 -7.32215 0.78699 -6.6917 7.37193 -4.46301 -2.65793 1.55662 -4.30361 -6.2849 -3.83474 1.76487 -7.87496 -5.15183 5.17727 5.42803 7.62488
-0.00513 0.57714 -0.00289 188.27218 0 -3.28341 5.90516 3.42384 -2.86561 -20.22893 2.55651 -1.76774 13.91943 -14.22447 -40.02847 5.32973 72.19183 -4.28532 1.62638 16.05682 9.09433 10.0849 5.33122 -71.40752 -7.1915 0.98375 -6.77378 7.39106 -4.56197 -2.67284 1.67772 -4.32193 -6.31535 -3.8867 1.77336 -8.02399 -5.17171 5.25689 5.44674 7.6552
-0.00599 0.57695 -0.00311 188.41459 0 -3.2525 5.84805 3.2579 -3.11754 -20.37404 2.87616 -1.78982 11.46061 -15.1258 -40.93631 5.31065 72.3915 -4.32917 1.52492 13.4407 9.54574 16.90135 5.30828 -70.68252 -6.93794 1.27871 -6.85859 7.40855 -4.66448 -2.69252 1.81331 -4.34209 -6.34888 -3.93786 1.78847 -7.97885 -5.19624 5.36861 5.45887 7.48446
-0.00678 0.57682 -0.0034 188.54062 0 -3.22305 5.77431 3.1066 -3.32817 -20.55113 3.13787 -1.81556 9.1481 -15.85006 -41.25719 5.34174 72.60477 -4.33145 1.4058 10.98348 9.97721 23.56217 5.34549 -69.95901 -6.66559 1.50662 -6.93426 7.43012 -4.75284 -2.71022 1.9222 -4.3583 -6.38028 -3.98758 1.79059 -8.32988 -5.21898 5.41797 5.48727 7.72645
-0.00737 0.57682 -0.00384 188.63001 0 -3.19612 5.65913 2.99651 -3.38611 -20.82957 3.2208 -1.82664 7.23553 -16.06694 -40.37441 5.32369 72.66514 -4.15371 1.36563 9.04738 10.3511 29.33625 5.32339 -69.33709 -6.59557 1.37372 -6.99119 7.46185 -4.81587 -2.71093 1.95408 -4.36389 -6.40113 -4.03847 1.74892 -9.9236 -5.22737 5.27729 5.55709 9.24958
-0.0079 0.57689 -0.00435 188.70074 0 -3.17099 5.52859 2.90275 -3.39774 -21.14438 3.24123 -1.83893 5.49757 -16.09612 -39.02771 5.32869 72.69935 -3.93245 1.32393 7.30514 10.69964 34.91423 5.32934 -68.76986 -6.54099 1.16493 -7.03829 7.49771 -4.8632 -2.70959 1.9586 -4.36548 -6.41934 -4.08776 1.69564 -11.88665 -5.23329 5.07628 5.64299 11.16023
-0.00844 0.57692 -0.00483 188.77368 0 -3.14611 5.4062 2.80431 -3.43208 -21.44654 3.28755 -1.85231 3.72594 -16.19895 -38.05243 5.32982 72.7158 -3.75444 1.282 5.50943 11.051 40.65868 5.33048 -68.27929 -6.48247 1.02533 -7.08692 7.53206 -4.91127 -2.71239 1.97548 -4.36879 -6.43916 -4.13604 1.65321 -13.57311 -5.24161 4.91309 5.72253 12.79066
-0.00903 0.57696 -0.00529 188.8733 0 -3.11677 5.2777 2.69334 -3.46496 -21.72926 3.34829 -1.86155 1.74654 -16.35587 -36.31653 5.32757 72.88179 -3.48369 1.22592 3.54263 11.44076 46.158 5.32756 -67.34535 -6.37369 0.7626 -7.14748 7.56498 -4.98561 -2.703 1.99306 -4.37251 -6.45799 -4.19118 1.58772 -15.7115 -5.24569 4.70684 5.79923 14.85337
